<svg xmlns="http://www.w3.org/2000/svg" xmlns:xlink="http://www.w3.org/1999/xlink" width="124" height="124" version="1.1" viewBox="0 0 124 124"><title>编组</title><defs><linearGradient id="linearGradient-1" x1="50%" x2="50%" y1="100%" y2="0%"><stop offset="0%" stop-color="#7A7B7C" stop-opacity="0"/><stop offset="100%" stop-color="#7A7B7C"/></linearGradient></defs><g id="Flat" fill="none" fill-rule="evenodd" stroke="none" stroke-width="1"><g id="首页-空数据" transform="translate(-236.000000, -312.000000)"><g id="编组" transform="translate(236.000000, 312.000000)"><rect id="矩形" width="124" height="124" x="0" y="0" fill="#FFF" opacity=".01"/><line id="路径-100" x1="24" x2="32" y1="21" y2="21" stroke="#7A7B7C"/><line id="路径-100" x1="28" x2="28" y1="17" y2="25" stroke="#7A7B7C"/><circle id="椭圆形" cx="104" cy="107" r="3.5" stroke="#7A7B7C"/><polygon id="路径-2" fill="url(#linearGradient-1)" points="44 43 44 85 100 85 100 43 72 24" opacity=".1"/><path id="矩形" stroke="#7A7B7C" stroke-width="2" d="M62,68 C67.5228475,68 72,72.4771525 72,78 L72,92 L72,92 L52,92 L52,78 C52,72.4771525 56.4771525,68 62,68 Z"/><line id="路径-99" x1="46" x2="78" y1="92" y2="92" stroke="#7A7B7C" stroke-width="2"/><polyline id="路径-39" stroke="#7A7B7C" stroke-width="2" points="22 51 62 24 102 51"/><polyline id="路径-3" stroke="#7A7B7C" stroke-width="2" points="29 54 29 100 95 100 95 54"/><polyline id="路径-5" stroke="#7A7B7C" stroke-width="2" points="83 38 83 28 95 28 95 47"/></g></g></g></svg>