<svg xmlns="http://www.w3.org/2000/svg" xmlns:xlink="http://www.w3.org/1999/xlink" width="124" height="124" version="1.1" viewBox="0 0 124 124"><title>编组</title><defs><linearGradient id="linearGradient-1" x1="100%" x2="0%" y1="50%" y2="50%"><stop offset="0%" stop-color="#7A7B7C" stop-opacity="0"/><stop offset="100%" stop-color="#7A7B7C"/></linearGradient></defs><g id="Flat" fill="none" fill-rule="evenodd" stroke="none" stroke-width="1"><g id="首页-空数据" transform="translate(-672.000000, -312.000000)"><g id="编组" transform="translate(672.000000, 312.000000)"><rect id="矩形" width="124" height="124" x="0" y="0" fill="#FFF" opacity=".01"/><polygon id="路径-101" stroke="#7A7B7C" points="25 101 21 106 27 107"/><line id="路径-100" x1="97.136" x2="104.864" y1="20.965" y2="23.035" stroke="#7A7B7C"/><line id="路径-100" x1="102.035" x2="99.965" y1="18.136" y2="25.864" stroke="#7A7B7C"/><path id="路径" stroke="#7A7B7C" stroke-width="2" d="M22,62 C22,84.09139 39.90861,102 62,102 C84.09139,102 102,84.09139 102,62 C102,39.90861 84.09139,22 62,22 C46.2951946,22 32.7042873,31.0506738 26.1586434,44.2206562"/><circle id="椭圆形" cx="70" cy="72" r="33" fill="url(#linearGradient-1)" opacity=".1"/><polyline id="路径-96" stroke="#7A7B7C" stroke-width="2" points="25 33 25 45 37 45"/><polyline id="路径-97" stroke="#7A7B7C" stroke-width="2" points="61 37 61 61 77 77"/></g></g></g></svg>