<svg xmlns="http://www.w3.org/2000/svg" xmlns:xlink="http://www.w3.org/1999/xlink" width="22" height="22" version="1.1" viewBox="0 0 22 22"><title>矩形备份 21</title><g id="2.1" fill="none" fill-rule="evenodd" stroke="none" stroke-width="1"><g id="首页-预定房间-周期性会议" transform="translate(-899.000000, -896.000000)"><g id="编组备份" transform="translate(899.000000, 896.000000)"><rect id="矩形备份-21" width="22" height="22" x="0" y="0" fill="#FFF" opacity=".01"/><path id="矩形" stroke="#7A7B7C" stroke-linecap="round" stroke-linejoin="round" d="M15,9 L15,15 C15,16.1045695 14.1045695,17 13,17 L9,17 C7.8954305,17 7,16.1045695 7,15 L7,9 L7,9"/><path id="路径-28" stroke="#7A7B7C" stroke-linecap="round" stroke-linejoin="round" d="M8,7 C8,5.8954305 8.8954305,5 10,5 L12,5 C13.1045695,5 14,5.8954305 14,7 L14,7 L14,7"/><line id="路径-27" x1="6" x2="16" y1="7" y2="7" stroke="#7A7B7C" stroke-linecap="round" stroke-linejoin="round"/><line id="路径-29备份" x1="12.5" x2="12.5" y1="10" y2="14" stroke="#7A7B7C" stroke-linecap="round" stroke-linejoin="round"/><line id="路径-29" x1="9.5" x2="9.5" y1="10" y2="14" stroke="#7A7B7C" stroke-linecap="round" stroke-linejoin="round"/></g></g></g></svg>