<svg xmlns="http://www.w3.org/2000/svg" xmlns:xlink="http://www.w3.org/1999/xlink" width="200" height="200" class="icon" p-id="4538" t="1600399321133" version="1.1" viewBox="0 0 1024 1024"><defs><style type="text/css"/></defs><path fill="#5ACC9B" d="M944 944H80c-26.4 0-48-18.4-48-40.8V656h960v247.2c0 22.4-21.6 40.8-48 40.8z" p-id="4539"/><path fill="#6CCBFF" d="M80 80h864c26.4 0 48 18.4 48 40.8V368H32V120.8c0-22.4 21.6-40.8 48-40.8z" p-id="4540"/><path fill="#FFD766" d="M32 368h960v288H32z" p-id="4541"/><path fill="#FF5562" d="M352 80h320v864H352z" p-id="4542"/><path fill="#FFF" d="M444 128h64v48h-64zM508 80h64v48h-64zM508 176h64v48h-64zM444 224h64v48h-64zM508 272h64v48h-64zM444 320h64v48h-64zM508 368h64v48h-64zM444 416h64v48h-64zM508 464h64v48h-64zM444 512h64v48h-64zM508 560h64v48h-64zM444 608h64v48h-64zM508 656h64v48h-64zM444 704h64v48h-64zM508 752h64v48h-64zM444 800h64v48h-64zM444 896h64v48h-64zM508 848h64v48h-64z" p-id="4543"/></svg>