<svg xmlns="http://www.w3.org/2000/svg" xmlns:xlink="http://www.w3.org/1999/xlink" width="124" height="124" version="1.1" viewBox="0 0 124 124"><title>编组 2</title><defs><linearGradient id="linearGradient-1" x1="100%" x2="0%" y1="50%" y2="50%"><stop offset="0%" stop-color="#7A7B7C" stop-opacity="0"/><stop offset="100%" stop-color="#7A7B7C"/></linearGradient></defs><g id="Flat" fill="none" fill-rule="evenodd" stroke="none" stroke-width="1"><g id="云盘-空数据" transform="translate(-454.000000, -312.000000)"><g id="编组-2" transform="translate(454.000000, 312.000000)"><rect id="矩形" width="124" height="124" x="0" y="0" fill="#FFF" opacity=".01"/><polygon id="星形" stroke="#7A7B7C" points="32.464 110.464 29.636 111.293 30.464 108.464 29.636 105.636 32.464 106.464 35.293 105.636 34.464 108.464 35.293 111.293" transform="translate(32.464102, 108.464102) rotate(-330.000000) translate(-32.464102, -108.464102)"/><line id="路径-100" x1="92" x2="100" y1="21" y2="21" stroke="#7A7B7C"/><line id="路径-100" x1="96" x2="96" y1="17" y2="25" stroke="#7A7B7C"/><polygon id="路径-3备份" fill="url(#linearGradient-1)" points="32 80 32 22 57.943 22 64 30 94 29.909 94 48.364 94 80" opacity=".1"/><polyline id="路径" stroke="#7A7B7C" stroke-width="2" points="92 95 22 95 22 29 50 29 57 38 92 38 92 45"/><polyline id="路径" stroke="#7A7B7C" stroke-width="2" points="26.321 75.122 28.574 64.762 32 49 102 49 92 95 22 95"/></g></g></g></svg>