<svg xmlns="http://www.w3.org/2000/svg" xmlns:xlink="http://www.w3.org/1999/xlink" width="22" height="22" version="1.1" viewBox="0 0 22 22"><title>编组</title><g id="Flat" fill="none" fill-rule="evenodd" stroke="none" stroke-linecap="round" stroke-linejoin="round" stroke-width="1"><g id="规范（持续更新）" stroke="#7A7B7C" transform="translate(-1416.000000, -197.000000)"><g id="编组-23" transform="translate(1086.000000, 129.000000)"><g id="编组-18" transform="translate(16.000000, 68.000000)"><g id="编组-9" transform="translate(279.000000, 0.000000)"><path id="矩形" d="M50,9 L50,15 C50,16.1045695 49.1045695,17 48,17 L44,17 C42.8954305,17 42,16.1045695 42,15 L42,9 L42,9"/><path id="路径-28" d="M43,7 C43,5.8954305 43.8954305,5 45,5 L47,5 C48.1045695,5 49,5.8954305 49,7 L49,7 L49,7"/><line id="路径-27" x1="41" x2="51" y1="7" y2="7"/><line id="路径-29备份" x1="47.5" x2="47.5" y1="10" y2="14"/><line id="路径-29" x1="44.5" x2="44.5" y1="10" y2="14"/></g></g></g></g></g></svg>