<svg xmlns="http://www.w3.org/2000/svg" xmlns:xlink="http://www.w3.org/1999/xlink" width="72" height="72" version="1.1" viewBox="0 0 72 72"><title>矩形备份 24</title><g id="Flat-Web" fill="none" fill-rule="evenodd" stroke="none" stroke-width="1"><g id="中转" transform="translate(-748.000000, -283.000000)"><g id="编组-4备份-2" transform="translate(748.000000, 283.000000)"><rect id="矩形" width="48" height="48" x="12" y="12" fill="#FFF"/><rect id="矩形" width="36" height="36" x="18" y="18" stroke="#3381FF" stroke-linejoin="round" stroke-width="3" rx="4"/><line id="路径-62" x1="30" x2="42" y1="41" y2="41" stroke="#3381FF" stroke-linecap="round" stroke-linejoin="round" stroke-width="3"/><line id="路径-62" x1="36" x2="36" y1="35" y2="47" stroke="#3381FF" stroke-linecap="round" stroke-linejoin="round" stroke-width="3"/><path id="形状结合" fill="#3381FF" d="M50,18 C52.209139,18 54,19.790861 54,22 L54,22 L54,30 L18,30 L18,22 C18,19.790861 19.790861,18 22,18 L22,18 Z M25,22 C23.8954305,22 23,22.8954305 23,24 C23,25.1045695 23.8954305,26 25,26 C26.1045695,26 27,25.1045695 27,24 C27,22.8954305 26.1045695,22 25,22 Z M32,22 C30.8954305,22 30,22.8954305 30,24 C30,25.1045695 30.8954305,26 32,26 C33.1045695,26 34,25.1045695 34,24 C34,22.8954305 33.1045695,22 32,22 Z"/></g></g></g></svg>