<svg xmlns="http://www.w3.org/2000/svg" xmlns:xlink="http://www.w3.org/1999/xlink" width="53" height="22" version="1.1" viewBox="0 0 53 22"><title>编组 44</title><g id="Flat-Web" fill="none" fill-rule="evenodd" stroke="none" stroke-width="1"><g id="中转" transform="translate(-240.000000, -24.000000)"><g id="编组-44" transform="translate(240.000000, 24.000000)"><text id="Flat" fill="#444E60" font-family="PingFangSC-Medium, PingFang SC" font-size="16" font-weight="400"><tspan x="24" y="17">Flat</tspan></text><g id="编组-4备份-4" transform="translate(0.000000, 1.000000)"><path id="矩形备份-2" fill="#D1E1FA" d="M2.72727273,14.5454545 L5.45454545,14.5454545 L5.45454545,14.5454545 L5.45454545,17.2727273 C5.45454545,18.7789584 4.23350386,20 2.72727273,20 C1.22104159,20 4.68162102e-14,18.7789584 4.70758393e-14,17.2727273 C4.68913792e-14,15.7664961 1.22104159,14.5454545 2.72727273,14.5454545 Z"/><path id="矩形备份" fill="#83B1FD" d="M4.54005401,7.27272727 L12.7272727,7.27272727 L12.7272727,7.27272727 L12.7272727,10.0054005 C12.7272727,11.508649 11.508649,12.7272727 10.0054005,12.7272727 L4.54005401,12.7272727 C3.03680551,12.7272727 1.81818182,11.508649 1.81818182,10.0054005 L1.81818182,9.99459946 C1.81818182,8.49135096 3.03680551,7.27272727 4.54005401,7.27272727 Z"/><path id="矩形" fill="#3381FF" d="M6.35823582,4.70758393e-14 L20,4.70758393e-14 L20,4.70758393e-14 L20,2.73267327 C20,4.23592177 18.7813763,5.45454545 17.2781278,5.45454545 L6.35823582,5.45454545 C4.85498732,5.45454545 3.63636364,4.23592177 3.63636364,2.73267327 L3.63636364,2.72187219 C3.63636364,1.21862369 4.85498732,4.69078924e-14 6.35823582,4.70758393e-14 Z"/></g></g></g></g></svg>